<svg width="2048" height="2048" version="1.1" xmlns="http://www.w3.org/2000/svg"><path fill="rgb(0,0,0)" stroke="rgb(0,0,0)" stroke-width="1" opacity="0" d="M 0 0 L 2048 0 L 2048 2048 L 0 2048 L 0 0 Z M 967 260 L 959 265 L 949 261 Q 939 261 937 268 L 934 267 L 929 268 Q 924 269 923 267 L 919 267 L 913 271 L 911 270 L 906 270 L 889 279 L 880 274 L 874 275 L 868 280 L 859 281 L 835 293 L 825 294 L 811 298 L 803 305 L 795 305 L 787 310 L 770 311 L 766 313 L 762 321 Q 761 323 755 322 L 742 329 Q 733 328 730 331 L 724 339 L 716 344 L 702 344 L 700 345 L 694 352 L 694 354 L 683 355 L 673 362 L 669 361 L 664 361 L 647 373 Q 639 372 637 376 L 628 373 L 623 374 Q 616 378 615 386 L 610 387 L 601 393 L 591 394 L 576 405 Q 572 407 572 412 Q 568 415 561 415 L 554 423 L 548 427 L 546 426 L 541 427 Q 536 428 537 434 L 528 438 L 526 442 L 526 443 L 516 443 L 511 450 L 498 459 L 494 465 Q 493 467 489 466 Q 484 469 482 476 L 481 477 L 472 478 Q 464 483 462 494 L 458 498 L 455 498 L 451 503 L 442 507 L 438 512 L 436 513 L 431 521 Q 428 526 421 527 Q 417 530 417 536 L 410 539 L 403 551 L 404 556 Q 403 558 402 556 L 397 556 L 389 559 L 386 565 L 386 574 L 378 579 L 370 591 L 369 598 L 363 600 L 358 605 L 357 611 L 351 619 L 350 623 L 347 625 Q 341 628 342 636 L 338 637 Q 331 641 332 651 L 329 652 Q 323 657 324 668 L 319 677 L 313 681 L 308 688 L 308 698 L 307 698 Q 302 701 302 709 L 302 711 L 302 716 L 298 721 L 295 722 Q 290 724 291 731 L 291 733 L 288 740 L 288 744 L 283 751 L 282 759 L 278 764 Q 279 766 276 765 L 273 773 Q 273 776 269 775 L 265 780 L 264 799 L 257 807 L 255 813 L 256 817 Q 257 825 254 829 L 250 831 L 243 839 Q 242 845 245 848 L 245 857 Q 241 861 242 871 Q 237 874 236 882 L 238 891 L 236 902 L 232 906 L 229 931 Q 225 932 226 938 L 220 946 L 220 951 L 224 959 L 224 961 L 224 979 L 222 983 L 221 1004 L 219 1008 L 219 1015 L 224 1025 L 220 1034 Q 218 1043 222 1047 L 222 1056 L 219 1062 Q 217 1070 221 1074 Q 222 1078 220 1080 L 220 1090 L 223 1102 Q 224 1107 221 1109 L 221 1115 L 223 1120 L 229 1127 L 229 1132 L 225 1138 L 225 1143 L 234 1157 Q 234 1164 238 1169 L 238 1176 Q 242 1179 241 1187 L 244 1190 L 246 1198 L 254 1212 L 254 1225 L 255 1226 L 256 1237 Q 261 1240 262 1248 L 266 1252 Q 267 1261 272 1267 L 273 1274 Q 278 1279 280 1289 L 284 1294 L 286 1301 L 293 1310 L 295 1317 L 301 1324 L 302 1329 L 307 1336 L 311 1350 L 319 1359 L 322 1369 L 334 1387 L 338 1396 L 343 1399 L 346 1407 L 355 1415 L 358 1416 L 364 1425 L 366 1432 L 369 1433 L 375 1443 Q 374 1445 377 1444 L 382 1454 L 387 1459 Q 386 1462 389 1461 L 391 1465 L 404 1471 Q 407 1474 408 1480 L 413 1483 L 417 1493 L 424 1497 L 430 1510 L 439 1515 Q 443 1513 442 1517 L 451 1523 L 453 1526 L 455 1535 L 462 1543 L 469 1549 L 475 1550 L 476 1553 L 487 1562 Q 495 1563 500 1567 L 507 1578 Q 515 1586 527 1589 L 529 1595 L 535 1603 L 551 1610 L 553 1616 L 564 1624 Q 570 1623 572 1625 L 575 1632 L 580 1635 L 588 1637 L 602 1647 L 614 1650 L 618 1657 L 628 1662 L 631 1661 L 634 1661 Q 640 1669 650 1673 L 657 1674 L 658 1677 L 668 1683 Q 670 1682 669 1685 L 675 1690 Q 678 1693 685 1692 L 692 1698 L 702 1699 L 709 1705 Q 717 1705 722 1710 L 729 1711 L 739 1717 L 747 1718 L 757 1725 L 767 1725 L 770 1728 L 774 1729 Q 778 1727 777 1731 L 786 1737 Q 792 1737 794 1733 L 808 1742 L 816 1744 L 823 1750 Q 832 1751 836 1746 L 845 1747 Q 848 1752 856 1754 L 866 1754 L 867 1753 Q 876 1751 880 1756 Q 886 1758 888 1755 L 915 1757 L 916 1758 L 921 1756 L 925 1757 Q 930 1759 932 1756 Q 938 1755 941 1759 L 948 1759 L 956 1764 Q 968 1766 971 1758 L 977 1761 L 982 1759 L 990 1763 L 998 1763 L 999 1762 L 1002 1763 Q 1008 1764 1011 1761 L 1015 1762 L 1023 1760 L 1026 1760 L 1032 1763 Q 1041 1765 1044 1760 L 1047 1761 Q 1053 1762 1055 1759 L 1060 1760 Q 1066 1762 1068 1759 L 1075 1761 Q 1081 1762 1084 1760 L 1086 1757 L 1094 1759 L 1111 1758 L 1112 1757 L 1115 1757 Q 1117 1761 1124 1762 Q 1133 1762 1136 1756 L 1141 1758 Q 1154 1756 1161 1748 L 1170 1751 L 1185 1750 L 1191 1745 L 1200 1744 L 1205 1741 Q 1210 1740 1212 1743 Q 1216 1740 1225 1741 L 1230 1738 L 1249 1738 L 1254 1737 L 1265 1729 Q 1273 1730 1277 1726 L 1279 1727 L 1284 1726 L 1287 1721 Q 1293 1719 1303 1720 L 1315 1715 L 1316 1712 Q 1321 1712 1325 1708 Q 1330 1707 1332 1709 L 1355 1700 Q 1358 1700 1357 1696 Q 1358 1693 1360 1695 L 1368 1695 L 1374 1691 Q 1380 1691 1383 1688 L 1385 1683 L 1395 1681 L 1403 1671 Q 1411 1671 1416 1675 Q 1422 1675 1425 1672 L 1429 1667 L 1431 1665 L 1438 1664 L 1441 1661 L 1448 1660 L 1453 1654 Q 1460 1651 1464 1645 Q 1471 1644 1475 1639 L 1485 1637 L 1498 1625 L 1515 1620 L 1518 1614 L 1524 1613 L 1531 1604 L 1534 1605 Q 1542 1606 1547 1603 Q 1550 1601 1550 1597 Q 1552 1592 1558 1592 Q 1565 1587 1567 1578 L 1569 1576 Q 1576 1578 1580 1575 Q 1584 1573 1583 1567 L 1589 1567 L 1598 1562 Q 1602 1559 1602 1553 L 1604 1551 Q 1610 1552 1614 1549 L 1616 1544 L 1625 1540 Q 1630 1538 1631 1531 L 1635 1528 L 1639 1521 Q 1638 1518 1642 1519 L 1644 1519 L 1647 1518 L 1654 1506 Q 1656 1502 1662 1503 L 1666 1499 L 1666 1496 Q 1668 1491 1675 1490 L 1681 1481 Q 1680 1477 1683 1478 L 1686 1474 L 1688 1466 L 1694 1465 L 1697 1462 L 1700 1452 L 1705 1451 L 1709 1443 L 1719 1439 L 1723 1435 L 1724 1429 Q 1729 1425 1730 1419 L 1735 1418 Q 1738 1414 1739 1408 L 1745 1404 Q 1749 1401 1748 1394 L 1757 1382 L 1758 1375 L 1760 1375 L 1769 1366 Q 1768 1363 1772 1364 L 1776 1360 L 1777 1353 L 1781 1348 L 1781 1344 L 1786 1334 L 1786 1328 Q 1793 1322 1796 1313 L 1801 1308 L 1803 1300 L 1805 1298 L 1805 1292 L 1805 1290 Q 1804 1287 1807 1288 Q 1811 1285 1813 1279 Q 1812 1276 1816 1277 Q 1821 1274 1823 1267 L 1820 1259 L 1824 1256 Q 1826 1254 1825 1249 L 1828 1244 L 1829 1235 L 1839 1213 Q 1841 1207 1838 1206 L 1842 1201 L 1843 1195 L 1847 1188 L 1844 1181 L 1845 1174 L 1849 1171 L 1855 1164 L 1854 1155 L 1851 1152 L 1852 1148 Q 1853 1141 1851 1138 L 1856 1137 L 1859 1133 Q 1860 1125 1856 1122 L 1858 1115 L 1861 1113 L 1862 1111 L 1861 1092 L 1859 1089 L 1864 1083 Q 1865 1076 1862 1073 L 1864 1068 L 1864 1058 L 1862 1047 L 1863 1035 L 1867 1030 L 1865 1019 Q 1863 1014 1867 1015 L 1871 1010 L 1870 998 L 1864 990 L 1865 985 L 1863 977 L 1864 964 L 1866 960 L 1863 950 L 1862 928 L 1859 921 L 1866 911 Q 1867 902 1862 899 Q 1863 896 1861 897 L 1857 893 L 1857 888 L 1861 883 L 1860 874 L 1852 865 L 1854 861 L 1854 850 Q 1848 846 1847 839 Q 1843 837 1846 836 L 1845 829 L 1843 825 L 1844 817 L 1847 810 L 1845 804 L 1840 798 L 1834 786 Q 1833 768 1825 757 L 1826 754 L 1824 740 L 1815 728 L 1814 715 L 1810 706 L 1808 704 L 1806 703 L 1805 693 L 1800 684 L 1798 682 L 1792 675 L 1791 663 L 1788 659 Q 1789 656 1786 657 L 1781 649 L 1781 646 L 1776 641 L 1769 628 Q 1769 621 1766 619 L 1764 617 L 1758 612 Q 1758 604 1755 600 L 1746 591 L 1746 588 L 1743 584 L 1739 580 L 1726 554 L 1719 548 L 1714 541 L 1712 535 L 1708 532 L 1697 517 L 1696 510 L 1692 503 Q 1690 501 1685 502 L 1675 489 L 1667 486 L 1663 480 L 1646 463 L 1642 461 L 1638 457 L 1634 454 L 1631 447 L 1626 442 L 1621 441 L 1616 436 L 1612 435 L 1605 428 L 1598 426 L 1587 416 L 1576 411 L 1573 407 L 1556 399 L 1548 392 L 1541 392 L 1532 387 Q 1525 388 1526 386 L 1523 384 L 1522 380 Q 1520 378 1514 379 L 1503 375 Q 1498 373 1498 368 L 1493 363 L 1482 361 L 1479 362 L 1474 361 L 1468 354 L 1461 348 L 1453 349 L 1449 344 L 1439 338 L 1434 338 L 1428 336 Q 1425 337 1426 335 L 1417 328 L 1411 330 L 1408 330 L 1400 325 L 1395 325 L 1387 319 Q 1379 320 1377 316 L 1366 316 L 1361 312 Q 1354 312 1352 309 L 1336 308 L 1321 300 Q 1316 299 1315 301 L 1306 294 L 1296 294 L 1295 295 L 1284 290 Q 1278 292 1279 288 L 1275 286 L 1268 288 L 1263 288 L 1256 282 L 1251 282 L 1243 279 L 1239 280 L 1236 277 L 1232 274 L 1227 276 Q 1221 277 1220 274 L 1214 274 L 1207 266 Q 1202 265 1201 268 L 1196 265 L 1187 267 L 1183 267 L 1177 264 L 1170 267 L 1163 263 L 1152 264 L 1150 264 Q 1141 266 1137 262 L 1128 263 L 1125 265 L 1116 262 Q 1110 261 1109 263 Q 1102 264 1101 260 L 1093 260 L 1092 261 L 1089 260 Q 1084 259 1083 261 Q 1076 263 1075 260 Q 1063 258 1058 262 Q 1047 264 1042 260 L 1033 264 L 1029 262 L 1014 262 L 1013 263 L 1008 261 L 999 261 L 998 260 L 990 261 L 988 263 Q 983 264 982 261 Q 977 260 976 263 L 970 260 L 967 260 Z "></path><path fill="rgb(0,0,0)" stroke="rgb(0,0,0)" stroke-width="1" opacity="0" d="M 863.5 313 L 863 314.5 L 861.5 317 L 859.5 318 L 859 316.5 L 863.5 313 Z "></path><path fill="rgb(0,0,0)" stroke="rgb(0,0,0)" stroke-width="1" opacity="0" d="M 1387.5 355 L 1391 355.5 L 1387.5 356 L 1387.5 355 Z "></path><path fill="rgb(0,0,0)" stroke="rgb(0,0,0)" stroke-width="1" opacity="0" d="M 1009.5 509 L 1017.5 513 L 1020.5 513 L 1021.5 512 L 1030.5 512 Q 1032.2 514.8 1037.5 514 L 1042.5 513 L 1048.5 515 L 1064.5 525 L 1080.5 528 L 1086.5 533 Q 1095.2 531.8 1098 536.5 Q 1101 539.5 1100 546.5 L 1109.5 561 L 1115 564.5 L 1117 573.5 L 1122 580.5 L 1122 585.5 L 1127 591.5 L 1128 601.5 L 1126 605.5 L 1130 616.5 L 1130 620.5 L 1129 623.5 L 1130 627.5 L 1127 633.5 Q 1134.3 638.8 1134 651.5 L 1133 654.5 L 1135 660.5 L 1132 668.5 L 1131 676.5 L 1133 679.5 L 1134 697.5 L 1131 708.5 L 1131 715.5 L 1136 726.5 L 1136 731.5 L 1131 745.5 L 1134 747 L 1135 749.5 L 1136 767.5 L 1137 768.5 Q 1133.5 772.5 1135 781.5 Q 1140.6 785.2 1139 795 Q 1144.4 795.3 1147.5 799 L 1152.5 799 L 1157 803.5 L 1160.5 810 L 1176 819.5 L 1184.5 831 L 1194.5 834 L 1202 841.5 L 1202.5 849 L 1204.5 848 Q 1205.8 850.3 1210.5 849 L 1215 853.5 L 1216 864 L 1219 865.5 L 1220.5 868 Q 1228.6 869.4 1232 875.5 Q 1231.2 878.1 1234.5 877 L 1241 882.5 L 1242.5 885 L 1249.5 887 L 1266 899.5 L 1267.5 902 L 1281.5 907 L 1287 911.5 Q 1286.2 914.1 1289.5 913 L 1306 925.5 Q 1305.3 927.8 1307.5 927 L 1319 933.5 L 1321.5 939 Q 1331.6 940.4 1336 947.5 L 1337 952 L 1339.5 953 L 1341.5 952 L 1349 957.5 L 1350.5 960 Q 1356.7 960.8 1359.5 965 L 1364.5 966 L 1370 970.5 Q 1369.3 972.8 1371.5 972 L 1373.5 974 Q 1381 973 1384 975 L 1389.5 983 Q 1396.4 982.1 1398 986.5 L 1401.5 992 Q 1409.8 991.8 1413 996.5 Q 1413.3 1001.3 1416.5 1003 L 1421 1006.5 L 1425 1013 L 1431 1015.5 L 1435 1026 Q 1438 1028 1445.5 1027 L 1457.5 1034 L 1462.5 1035 L 1476 1046.5 Q 1477.9 1055.6 1484.5 1060 L 1487.5 1060 L 1492.5 1065 Q 1498.7 1064.3 1500 1068.5 L 1504.5 1074 Q 1509.6 1073.4 1511 1076.5 Q 1510.3 1078.8 1512.5 1078 L 1518 1082.5 L 1521 1096 Q 1529.4 1096.4 1533 1102.5 L 1534 1108 L 1546.5 1113 L 1549 1115.5 L 1552.5 1123 Q 1560.1 1123.9 1564 1128.5 L 1566.5 1132 Q 1574 1132 1577 1136.5 L 1578 1141 Q 1585.6 1142.1 1590 1147.5 L 1593 1153.5 L 1598.5 1159 Q 1608.3 1158.2 1612 1163.5 L 1613 1167.5 L 1612 1171 L 1619 1175.5 L 1622.5 1181 L 1625.5 1182 L 1640 1194.5 L 1641 1200 Q 1643.1 1201.6 1648.5 1201 L 1655 1204 L 1657 1207.5 L 1657 1214.5 L 1667 1228.5 L 1667 1231.5 L 1671 1239.5 L 1674.5 1243 L 1678 1245.5 L 1677 1256.5 L 1681 1276.5 L 1667 1301 L 1661.5 1304 L 1653.5 1305 L 1639 1311.5 Q 1639.8 1313.8 1637.5 1313 Q 1635.5 1316 1629.5 1315 Q 1628.1 1312.4 1623.5 1313 L 1620 1315.5 L 1617 1322 L 1612.5 1324 L 1598.5 1324 L 1591.5 1321 L 1590.5 1322 L 1579.5 1323 L 1577.5 1322 Q 1572.3 1329.3 1559.5 1329 Q 1554.9 1326.1 1546.5 1327 L 1536.5 1334 L 1529.5 1335 Q 1528.2 1332.8 1523.5 1334 Q 1521.8 1336.8 1515.5 1335 Q 1512.8 1332.2 1506.5 1333 L 1498.5 1342 L 1493.5 1343 Q 1492 1340.5 1486.5 1342 L 1477.5 1344 L 1472.5 1342 Q 1465.2 1347.7 1450.5 1346 Q 1449.5 1343 1444.5 1344 L 1440.5 1345 L 1438.5 1345 L 1435.5 1347 L 1432.5 1349 L 1425.5 1350 Q 1422.5 1347 1416.5 1347 L 1405.5 1349 Q 1404.3 1346.7 1399.5 1348 L 1392.5 1352 Q 1384.3 1350.7 1379.5 1353 Q 1378.3 1350.7 1373.5 1352 L 1370.5 1350 L 1362.5 1350 L 1358.5 1352 L 1349.5 1352 L 1342.5 1355 L 1336.5 1355 L 1333.5 1357 L 1325.5 1358 Q 1321.4 1353.1 1310.5 1355 L 1301.5 1357 L 1281.5 1357 Q 1280.3 1359.2 1275.5 1358 L 1267.5 1362 L 1260.5 1362 L 1256.5 1361 L 1253.5 1363 L 1242.5 1363 L 1240.5 1362 L 1228.5 1367 L 1222.5 1367 L 1220.5 1366 L 1216.5 1367 L 1213.5 1365 L 1199.5 1364 Q 1194.7 1368.7 1183.5 1367 L 1169.5 1362 L 1156.5 1365 L 1137.5 1365 L 1131.5 1363 Q 1129.3 1366.8 1122.5 1366 L 1102.5 1360 Q 1096 1364.5 1083.5 1363 L 1081.5 1362 L 1067.5 1368 L 1055.5 1368 L 1051.5 1367 L 1043.5 1371 L 1036.5 1371 L 1032.5 1374 L 1024.5 1376 Q 1023.2 1373.8 1018.5 1375 L 1011.5 1371 L 1003.5 1371 Q 1000.2 1377.2 988.5 1375 L 985.5 1374 L 977.5 1377 L 970.5 1377 L 962.5 1373 L 955.5 1377 L 946.5 1377 L 941.5 1374 Q 937 1378.5 926.5 1377 L 916.5 1374 L 915.5 1375 L 901.5 1375 L 897.5 1377 L 893.5 1375 L 881.5 1378 L 865.5 1378 L 858.5 1374 L 840.5 1374 L 839.5 1373 L 833.5 1376 L 827.5 1376 L 818.5 1373 L 813.5 1373 L 812.5 1374 L 804.5 1374 L 794.5 1379 L 785.5 1377 L 781.5 1373 L 778.5 1373 L 775.5 1375 L 761.5 1376 L 758.5 1374 L 746.5 1373 L 735.5 1375 L 733.5 1374 L 731.5 1375 L 726.5 1374 Q 721 1379 708.5 1377 Q 707 1374.5 701.5 1376 L 696.5 1378 Q 688.5 1377 684.5 1380 L 675.5 1380 L 663.5 1383 L 660.5 1382 L 658.5 1383 L 656.5 1383 L 635.5 1385 Q 634.3 1382.8 629.5 1384 L 624.5 1386 Q 617.3 1382.7 605.5 1384 L 587.5 1377 L 584.5 1378 L 575 1371.5 L 569 1358 L 559 1352.5 L 557.5 1350 Q 555.3 1350.8 556 1348.5 L 551 1334 L 548 1332.5 L 544.5 1325 L 540 1321.5 Q 536.1 1318.9 537 1311.5 L 543 1299.5 L 544 1291.5 L 549 1281.5 L 549 1278.5 L 548 1277.5 L 548 1269.5 L 550 1263.5 Q 557.1 1258.1 560 1248.5 L 560 1240.5 L 564.5 1235 L 567 1233.5 L 568 1229.5 L 576.5 1220 L 580 1217.5 L 585 1208.5 L 586 1200.5 L 592.5 1194 L 600 1188.5 L 607.5 1172 Q 612.3 1171.8 614 1168.5 L 614 1165.5 L 618.5 1160 L 626 1155 Q 627.5 1147.2 633.5 1143 L 639 1139.5 L 644.5 1127 L 649 1126 Q 647.3 1114.6 653.5 1110 L 662 1106.5 L 662 1103.5 L 665 1097.5 L 671 1091.5 L 675.5 1082 L 682 1077.5 L 686 1069 L 689.5 1067 L 693.5 1067 L 695.5 1068 L 706.5 1055 L 709.5 1053 L 718.5 1052 L 722 1048.5 L 724.5 1045 L 728 1042.5 L 732 1036.5 L 732 1033.5 L 736.5 1029 L 743.5 1028 L 745 1026.5 Q 743.8 1020.3 747.5 1019 L 757.5 1017 L 759 1015.5 L 761 1009 L 765.5 1008 Q 774.6 997.6 787 990.5 L 790 982.5 L 792.5 980 L 798.5 977 L 804.5 976 L 812 969.5 Q 812.3 964.8 815.5 963 L 820 959.5 L 824.5 954 L 828 952.5 Q 826.8 945.3 831.5 944 L 837.5 941 L 842 941 L 843.5 938 L 859.5 929 L 864.5 928 Q 872.6 917.6 886 912.5 L 891.5 906 L 897 901.5 L 901.5 895 L 906 892.5 L 909.5 888 L 919.5 886 L 923 882.5 L 930.5 872 L 938.5 867 L 944.5 866 L 950 862.5 L 957.5 854 L 970.5 849 L 975 844.5 Q 974.2 841.9 977.5 843 Q 984.4 841.4 987 835.5 Q 987.3 830.8 990.5 829 L 998 827 Q 996.9 824.3 999.5 825 L 1013 815.5 Q 1012.3 813.3 1014.5 814 L 1024 806.5 L 1027.5 802 Q 1033.3 800.8 1036 796.5 L 1038.5 791 L 1050 784.5 L 1052 780.5 L 1053 769.5 Q 1047 765.5 1048 754.5 L 1050.5 751 Q 1053.1 751.8 1052 748.5 L 1053 743.5 L 1051 738.5 L 1055 730.5 L 1051 716.5 L 1051 712.5 L 1054 704.5 L 1051 698.5 L 1052 694.5 Q 1049.3 692.8 1051 686.5 L 1051 684.5 L 1050 677.5 L 1052 671.5 Q 1046.7 667.8 1048 657.5 L 1049 654.5 L 1043 640.5 Q 1046.1 635.1 1045 625.5 Q 1042.5 624 1044 618.5 L 1042.5 617 L 1039 616 L 1038 611.5 L 1027.5 599 L 1010.5 603 L 1005.5 599 L 1000.5 599 L 996.5 601 L 976 603 Q 975.5 609.8 970.5 613 L 961.5 616 L 959 618.5 L 949.5 631 L 945 634.5 L 944 638 L 937.5 641 L 934 644.5 L 927 652.5 L 915 680.5 L 916 683.5 L 910 692.5 Q 913 695.5 912 702.5 L 906.5 709 L 901 712.5 L 902 716.5 L 895.5 724 L 891.5 726 L 882.5 727 L 879.5 726 L 876 731 Q 869.8 735 859.5 736 L 850.5 733 L 847 729.5 Q 846.1 718.9 839 714.5 L 839 705.5 L 840 702.5 L 836 696.5 L 836 691.5 Q 840.1 688.6 839 680.5 Q 835.2 677.3 837 668.5 L 844 658.5 Q 844.8 647.8 849 640.5 L 849 633.5 L 856 622.5 L 858 616.5 L 859 606.5 L 867 596.5 L 867 594.5 Q 864.2 592.8 866 586.5 L 870.5 580 L 875.5 578 L 879.5 578 L 884 573.5 L 886 570.5 L 887 561.5 L 890.5 558 L 897 555.5 Q 898.6 548.6 904.5 546 L 912 543 L 913.5 540 L 926.5 531 L 942.5 526 L 951.5 519 L 965.5 518 Q 972.5 512 984.5 511 L 996.5 514 L 1002.5 510 Q 1008 511.5 1009.5 509 Z M 1079 856 L 1071 861 L 1068 861 L 1064 868 L 1055 873 Q 1052 872 1053 875 L 1046 880 L 1040 880 L 1036 887 L 1030 891 L 1027 897 L 1013 908 L 1008 909 L 1000 917 L 996 918 Q 992 917 993 920 L 987 926 L 984 926 L 981 930 L 973 937 L 967 937 L 967 940 Q 964 945 956 944 L 954 952 L 948 958 L 941 959 L 938 966 L 935 969 L 930 971 Q 925 969 926 973 L 920 978 L 915 978 L 908 988 L 902 991 L 901 995 L 892 1002 Q 889 1001 890 1004 L 884 1010 L 882 1010 L 878 1018 L 863 1028 L 854 1038 L 853 1042 L 848 1045 L 846 1048 L 843 1051 L 836 1053 L 835 1058 L 830 1064 L 823 1069 L 821 1076 Q 819 1081 812 1082 L 810 1085 L 807 1087 L 803 1091 L 801 1096 L 795 1100 L 788 1100 L 787 1106 L 778 1113 L 772 1115 L 767 1123 Q 765 1126 760 1125 L 756 1132 L 739 1151 Q 740 1157 737 1159 L 724 1169 Q 720 1170 721 1175 Q 719 1180 711 1179 L 707 1189 Q 707 1193 702 1192 Q 698 1202 691 1208 Q 689 1211 683 1210 Q 675 1218 671 1230 L 669 1231 L 666 1234 L 664 1242 Q 662 1247 654 1247 L 638 1269 L 639 1272 L 638 1280 L 634 1283 Q 631 1284 633 1286 L 632 1297 Q 636 1299 645 1298 L 653 1301 Q 657 1302 658 1299 L 671 1303 L 674 1298 L 677 1297 L 681 1297 L 687 1301 L 691 1301 L 692 1302 L 696 1298 Q 707 1296 713 1301 L 715 1301 L 721 1296 L 730 1294 Q 736 1294 739 1297 L 747 1294 Q 754 1293 757 1297 L 760 1295 L 764 1296 L 768 1294 L 786 1293 L 791 1289 L 799 1291 L 803 1290 Q 808 1289 810 1291 L 813 1288 L 819 1286 L 822 1287 L 829 1285 L 837 1289 L 840 1288 Q 844 1287 846 1289 L 854 1289 L 855 1288 L 860 1290 L 867 1286 L 873 1286 L 877 1289 Q 882 1288 884 1290 L 895 1286 Q 903 1285 907 1288 Q 913 1290 915 1287 Q 921 1286 924 1289 L 929 1287 L 936 1287 L 948 1295 L 962 1289 Q 969 1291 980 1290 L 982 1292 L 989 1293 L 993 1295 L 1012 1289 L 1021 1289 L 1031 1293 L 1041 1293 L 1049 1288 L 1054 1289 Q 1059 1291 1061 1288 Q 1068 1287 1071 1291 L 1089 1290 L 1096 1285 L 1101 1284 L 1110 1288 Q 1117 1289 1120 1285 Q 1130 1286 1137 1291 L 1145 1285 Q 1151 1285 1154 1288 L 1156 1288 L 1162 1283 L 1171 1283 L 1172 1284 L 1180 1280 L 1186 1280 L 1193 1285 L 1199 1282 L 1204 1283 L 1209 1283 L 1220 1276 Q 1230 1274 1233 1280 L 1243 1276 L 1254 1276 L 1265 1274 L 1268 1272 L 1280 1272 L 1281 1271 Q 1287 1270 1289 1274 Q 1291 1275 1290 1273 L 1297 1268 L 1308 1270 Q 1312 1271 1314 1269 L 1316 1270 L 1322 1267 L 1327 1267 L 1331 1264 L 1340 1261 L 1348 1264 L 1352 1263 Q 1359 1262 1363 1265 L 1365 1265 L 1373 1259 L 1378 1258 L 1391 1261 L 1397 1261 L 1402 1263 L 1409 1261 Q 1414 1260 1416 1262 Q 1421 1263 1424 1260 Q 1429 1259 1431 1261 L 1434 1261 L 1439 1257 Q 1446 1256 1450 1259 L 1453 1257 Q 1457 1256 1459 1258 L 1466 1254 Q 1472 1252 1474 1255 L 1477 1255 L 1482 1252 Q 1488 1251 1491 1255 L 1496 1253 L 1511 1252 L 1515 1249 Q 1520 1248 1522 1251 Q 1530 1252 1534 1249 L 1537 1250 L 1544 1248 Q 1547 1245 1547 1239 L 1554 1229 L 1554 1224 L 1551 1221 Q 1542 1216 1543 1203 L 1538 1200 L 1532 1194 L 1529 1191 L 1526 1188 L 1521 1183 L 1512 1181 L 1508 1178 Q 1505 1179 1506 1177 L 1502 1172 L 1494 1171 L 1489 1167 L 1486 1159 Q 1485 1156 1480 1157 L 1473 1153 L 1469 1147 Q 1470 1144 1468 1145 L 1466 1145 L 1462 1143 L 1457 1137 L 1447 1127 L 1436 1122 L 1429 1115 L 1421 1108 L 1417 1109 Q 1410 1110 1409 1106 L 1404 1100 L 1403 1095 L 1395 1086 L 1384 1080 L 1379 1081 Q 1373 1082 1371 1079 Q 1366 1075 1365 1069 L 1354 1058 L 1350 1057 L 1337 1047 L 1329 1044 L 1312 1029 Q 1309 1030 1310 1027 L 1306 1025 L 1302 1021 L 1296 1017 L 1290 1011 L 1286 1006 L 1274 1001 Q 1269 998 1268 992 L 1257 985 Q 1254 986 1255 984 L 1248 977 L 1242 976 L 1236 973 L 1227 966 L 1217 961 Q 1213 962 1214 960 L 1210 957 L 1202 947 L 1184 931 Q 1174 932 1171 927 L 1164 920 L 1155 912 L 1143 907 L 1138 897 L 1118 887 L 1107 879 L 1103 873 L 1099 872 L 1096 869 L 1089 864 L 1087 860 L 1085 857 L 1079 856 Z M 1143 857 L 1143 858 L 1145 858 L 1143 857 Z "></path><path fill="rgb(0,64,134)" stroke="rgb(0,64,134)" stroke-width="1" opacity="1" d="M 966.5 260 L 969.5 260 L 975.5 263 Q 976.5 260 981.5 261 Q 982.5 264 987.5 263 L 989.5 261 L 997.5 260 L 998.5 261 L 1007.5 261 L 1012.5 263 L 1013.5 262 L 1028.5 262 L 1032.5 264 L 1041.5 260 Q 1046.9 263.6 1057.5 262 Q 1063.3 258.3 1074.5 260 Q 1076.2 262.8 1082.5 261 Q 1083.7 258.8 1088.5 260 L 1091.5 261 L 1092.5 260 L 1100.5 260 Q 1102.4 263.6 1108.5 263 Q 1110 260.5 1115.5 262 L 1124.5 265 L 1127.5 263 L 1136.5 262 Q 1140.5 265.5 1149.5 264 L 1151.5 264 L 1162.5 263 L 1169.5 267 L 1176.5 264 L 1182.5 267 L 1186.5 267 L 1195.5 265 L 1200.5 268 Q 1201.5 265 1206.5 266 L 1213.5 274 L 1219.5 274 Q 1221.2 276.8 1226.5 276 L 1231.5 274 L 1236 276.5 L 1238.5 280 L 1242.5 279 L 1250.5 282 L 1255.5 282 L 1262.5 288 L 1267.5 288 L 1274.5 286 L 1279 288 Q 1277.7 291.7 1283.5 290 L 1294.5 295 L 1295.5 294 L 1305.5 294 L 1314.5 301 Q 1315.8 298.7 1320.5 300 L 1335.5 308 L 1351.5 309 Q 1354.5 312 1360.5 312 L 1365.5 316 L 1376.5 316 Q 1379.1 319.9 1386.5 319 L 1394.5 325 L 1399.5 325 L 1407.5 330 L 1410.5 330 L 1416.5 328 L 1426 334.5 Q 1425.3 336.8 1427.5 336 L 1433.5 338 L 1438.5 338 L 1449 343.5 L 1452.5 349 L 1460.5 348 L 1468 353.5 L 1473.5 361 L 1478.5 362 L 1481.5 361 L 1492.5 363 L 1498 367.5 Q 1498.5 373.1 1502.5 375 L 1513.5 379 Q 1519.6 378.3 1522 380 L 1523 384 L 1526 385.5 Q 1525.4 388.3 1531.5 387 L 1540.5 392 L 1547.5 392 L 1555.5 399 L 1573 407 L 1575.5 411 L 1586.5 416 L 1597.5 426 L 1604.5 428 L 1611.5 435 L 1615.5 436 L 1620.5 441 L 1625.5 442 L 1631 446.5 L 1634 454 L 1638 456.5 L 1641.5 461 L 1645.5 463 L 1663 479.5 L 1666.5 486 L 1675 489 L 1684.5 502 Q 1689.9 501.4 1692 503 L 1696 509.5 L 1697 516.5 L 1707.5 532 L 1712 534.5 L 1714 540.5 L 1719 548 L 1726 553.5 L 1738.5 580 L 1743 583.5 L 1746 587.5 L 1746 590.5 L 1755 599.5 Q 1758.2 603.8 1758 611.5 L 1763.5 617 L 1766 618.5 Q 1769 621.5 1769 627.5 L 1776 640.5 L 1781 645.5 L 1781 648.5 L 1786 657 Q 1788.7 655.9 1788 658.5 L 1791 662.5 L 1792 674.5 L 1797.5 682 L 1800 683.5 L 1805 692.5 L 1806 702.5 L 1807.5 704 L 1810 705.5 L 1814 714.5 L 1815 727.5 L 1824 739.5 L 1826 753.5 L 1825 756.5 Q 1833 767.5 1834 785.5 L 1840 797.5 L 1845 803.5 L 1847 809.5 L 1844 816.5 L 1843 824.5 L 1845 828.5 L 1846 835.5 Q 1843.5 837 1847 838.5 Q 1848.1 846.4 1854 849.5 L 1854 860.5 L 1852 864.5 L 1860 873.5 L 1861 882.5 L 1857 887.5 L 1857 892.5 L 1860.5 897 Q 1862.8 896.3 1862 898.5 Q 1866.5 902 1866 910.5 L 1859 920.5 L 1862 927.5 L 1863 949.5 L 1866 959.5 L 1864 963.5 L 1863 976.5 L 1865 984.5 L 1864 989.5 L 1870 997.5 L 1871 1009.5 L 1866.5 1015 Q 1863.5 1014.1 1865 1018.5 L 1867 1029.5 L 1863 1034.5 L 1862 1046.5 L 1864 1057.5 L 1864 1067.5 L 1862 1072.5 Q 1865 1075.5 1864 1082.5 L 1859 1088.5 L 1861 1091.5 L 1862 1110.5 L 1861 1113 L 1858 1114.5 L 1856 1121.5 Q 1859.5 1125 1859 1132.5 L 1855.5 1137 L 1851 1138 Q 1852.9 1140.7 1852 1147.5 L 1851 1151.5 L 1854 1154.5 L 1855 1163.5 L 1848.5 1171 L 1845 1173.5 L 1844 1180.5 L 1847 1187.5 L 1843 1194.5 L 1842 1200.5 L 1838 1205.5 Q 1840.5 1207 1839 1212.5 L 1829 1234.5 L 1828 1243.5 L 1825 1248.5 Q 1825.6 1253.9 1824 1256 L 1820 1258.5 L 1823 1266.5 Q 1821.2 1273.7 1815.5 1277 Q 1812.2 1275.9 1813 1278.5 Q 1811.5 1285 1806.5 1288 Q 1804.3 1287.3 1805 1289.5 L 1805 1291.5 L 1805 1297.5 L 1803 1299.5 L 1801 1307.5 L 1796 1312.5 Q 1793 1322 1786 1327.5 L 1786 1333.5 L 1781 1343.5 L 1781 1347.5 L 1777 1352.5 L 1776 1359.5 L 1771.5 1364 Q 1768.2 1362.9 1769 1365.5 L 1759.5 1375 L 1758 1375 L 1757 1381.5 L 1748 1393.5 Q 1749 1401.5 1744.5 1404 L 1739 1407.5 Q 1738.4 1414.4 1734.5 1418 L 1730 1419 Q 1729 1425 1724 1428.5 L 1723 1434.5 L 1718.5 1439 L 1709 1443 L 1704.5 1451 L 1700 1452 L 1697 1461.5 L 1693.5 1465 L 1688 1466 L 1686 1473.5 L 1682.5 1478 Q 1679.9 1477.2 1681 1480.5 L 1674.5 1490 Q 1668.2 1490.7 1666 1495.5 L 1666 1498.5 L 1661.5 1503 Q 1656 1502.5 1654 1505.5 L 1646.5 1518 L 1643.5 1519 L 1641.5 1519 Q 1638.2 1517.9 1639 1520.5 L 1634.5 1528 L 1631 1530.5 Q 1630.2 1537.7 1624.5 1540 L 1616 1543.5 L 1613.5 1549 Q 1610.2 1551.7 1603.5 1551 L 1602 1552.5 Q 1601.6 1559.1 1597.5 1562 L 1588.5 1567 L 1583 1567 Q 1583.9 1572.9 1579.5 1575 Q 1576 1577.5 1568.5 1576 L 1567 1577.5 Q 1564.6 1587.1 1557.5 1592 Q 1552 1592.5 1550 1596.5 Q 1549.8 1601.3 1546.5 1603 Q 1542.1 1606.1 1533.5 1605 L 1530.5 1604 L 1523.5 1613 L 1518 1614 L 1514.5 1620 L 1497.5 1625 L 1484.5 1637 L 1474.5 1639 Q 1471.4 1644.4 1463.5 1645 Q 1460.2 1651.1 1453 1653.5 L 1447.5 1660 L 1440.5 1661 L 1437.5 1664 L 1430.5 1665 L 1429 1666.5 L 1424.5 1672 Q 1421.5 1675 1415.5 1675 Q 1411.2 1670.8 1402.5 1671 L 1394.5 1681 L 1385 1683 L 1383 1688 Q 1380 1690.7 1373.5 1691 L 1367.5 1695 L 1359.5 1695 Q 1358.3 1692.8 1357 1695.5 Q 1357.5 1699.5 1354.5 1700 L 1331.5 1709 Q 1330 1706.5 1324.5 1708 Q 1321.4 1711.7 1316 1712 L 1314.5 1715 L 1302.5 1720 Q 1292.6 1719.1 1287 1721 L 1283.5 1726 L 1278.5 1727 L 1276.5 1726 Q 1273.3 1730.3 1264.5 1729 L 1253.5 1737 L 1248.5 1738 L 1229.5 1738 L 1224.5 1741 Q 1215.9 1739.9 1211.5 1743 Q 1209.8 1740.2 1204.5 1741 L 1199.5 1744 L 1190.5 1745 L 1184.5 1750 L 1169.5 1751 L 1160.5 1748 Q 1153.9 1756.4 1140.5 1758 L 1135.5 1756 Q 1132.9 1762.4 1123.5 1762 Q 1117.3 1761.2 1114.5 1757 L 1111.5 1757 L 1110.5 1758 L 1093.5 1759 L 1085.5 1757 L 1084 1760 Q 1081.3 1761.9 1074.5 1761 L 1067.5 1759 Q 1065.8 1761.8 1059.5 1760 L 1054.5 1759 Q 1052.5 1762 1046.5 1761 L 1043.5 1760 Q 1040.7 1764.7 1031.5 1763 L 1025.5 1760 L 1022.5 1760 L 1014.5 1762 L 1010.5 1761 Q 1008.2 1764.2 1001.5 1763 L 998.5 1762 L 997.5 1763 L 989.5 1763 L 981.5 1759 L 976.5 1761 L 970.5 1758 Q 967.8 1765.8 955.5 1764 L 947.5 1759 L 940.5 1759 Q 938.2 1755.2 931.5 1756 Q 930 1758.5 924.5 1757 L 920.5 1756 L 915.5 1758 L 914.5 1757 L 887.5 1755 Q 885.8 1757.7 879.5 1756 Q 876.4 1751.1 866.5 1753 L 865.5 1754 L 855.5 1754 Q 848.5 1752 844.5 1747 L 835.5 1746 Q 832.1 1751.1 822.5 1750 L 815.5 1744 L 807.5 1742 L 793.5 1733 Q 791.5 1737 785.5 1737 L 777 1730.5 Q 777.9 1727.5 773.5 1729 L 769.5 1728 L 766.5 1725 L 756.5 1725 L 746.5 1718 L 738.5 1717 L 728.5 1711 L 721.5 1710 Q 717.5 1705 708.5 1705 L 701.5 1699 L 691.5 1698 L 684.5 1692 Q 677.5 1693 674.5 1690 L 669 1684.5 Q 669.8 1682.3 667.5 1683 L 658 1676.5 L 656.5 1674 L 649.5 1673 Q 639.8 1668.8 633.5 1661 L 630.5 1661 L 627.5 1662 L 618 1656.5 L 614 1650 L 601.5 1647 L 587.5 1637 L 579.5 1635 L 575 1632 L 572 1625 Q 569.6 1623.3 563.5 1624 L 553 1615.5 L 550.5 1610 L 535 1602.5 L 529 1594.5 L 527 1589 Q 514.7 1586 507 1577.5 L 499.5 1567 Q 494.6 1562.9 486.5 1562 L 476 1552.5 L 474.5 1550 L 468.5 1549 L 462 1542.5 L 455 1534.5 L 453 1525.5 L 450.5 1523 L 442 1516.5 Q 442.9 1513.5 438.5 1515 L 430 1510 L 423.5 1497 L 417 1492.5 L 413 1483 L 408 1479.5 Q 407.3 1473.7 403.5 1471 L 391 1465 L 388.5 1461 Q 385.9 1461.8 387 1458.5 L 382 1453.5 L 376.5 1444 Q 374.3 1444.8 375 1442.5 L 368.5 1433 L 366 1431.5 L 364 1424.5 L 357.5 1416 L 354.5 1415 L 346 1406.5 L 342.5 1399 L 338 1395.5 L 334 1386.5 L 322 1368.5 L 319 1358.5 L 311 1349.5 L 307 1335.5 L 302 1328.5 L 301 1323.5 L 295 1316.5 L 293 1309.5 L 286 1300.5 L 284 1293.5 L 280 1288.5 Q 278.3 1279.2 273 1273.5 L 272 1266.5 Q 266.7 1261.3 266 1251.5 L 262 1247.5 Q 260.9 1240.1 256 1236.5 L 255 1225.5 L 254 1224.5 L 254 1211.5 L 246 1197.5 L 244 1189.5 L 241 1186.5 Q 241.5 1179 238 1175.5 L 238 1168.5 Q 234.5 1164 234 1156.5 L 225 1142.5 L 225 1137.5 L 229 1131.5 L 229 1126.5 L 223 1119.5 L 221 1114.5 L 221 1108.5 Q 223.8 1106.8 223 1101.5 L 220 1089.5 L 220 1079.5 Q 222.3 1078.3 221 1073.5 Q 217.2 1070.3 219 1061.5 L 222 1055.5 L 222 1046.5 Q 218 1043 220 1033.5 L 224 1024.5 L 219 1014.5 L 219 1007.5 L 221 1003.5 L 222 982.5 L 224 978.5 L 224 960.5 L 224 958.5 L 220 950.5 L 220 945.5 L 226 937.5 Q 225 931.5 229 930.5 L 232 905.5 L 236 901.5 L 238 890.5 L 236 881.5 Q 237.3 874.3 242 870.5 Q 241 860.9 245 856.5 L 245 847.5 Q 242.4 844.6 243 838.5 L 249.5 831 L 254 828.5 Q 257.3 824.8 256 816.5 L 255 812.5 L 257 806.5 L 264 798.5 L 265 779.5 L 268.5 775 Q 272.5 775.5 273 772.5 L 276 765 Q 278.7 766.1 278 763.5 L 282 758.5 L 283 750.5 L 288 743.5 L 288 739.5 L 291 732.5 L 291 730.5 Q 290.1 723.6 294.5 722 L 298 721 L 302 715.5 L 302 710.5 L 302 708.5 Q 302 701 306.5 698 L 308 697.5 L 308 687.5 L 312.5 681 L 319 676.5 L 324 667.5 Q 323.3 656.8 328.5 652 L 332 651 Q 331.3 640.9 337.5 637 L 342 636 Q 340.6 627.6 346.5 625 L 350 622.5 L 351 618.5 L 357 610.5 L 358 604.5 L 362.5 600 L 369 598 L 370 590.5 L 378 579 L 386 573.5 L 386 564.5 L 389 559 L 396.5 556 L 401.5 556 Q 402.8 558.3 404 555.5 L 403 550.5 L 409.5 539 L 417 536 Q 417 530.2 420.5 527 Q 427.9 525.9 431 520.5 L 435.5 513 L 438 511.5 L 441.5 507 L 451 502.5 L 454.5 498 L 457.5 498 L 462 493.5 Q 464.1 483.1 471.5 478 L 480.5 477 L 482 475.5 Q 483.5 469 488.5 466 Q 493 467 494 464.5 L 497.5 459 L 511 449.5 L 515.5 443 L 525.5 443 L 526 441.5 L 528 438 L 537 433.5 Q 536.3 427.8 540.5 427 L 545.5 426 L 547.5 427 L 554 422.5 L 560.5 415 Q 568 415 572 411.5 Q 572.3 406.8 575.5 405 L 590.5 394 L 600.5 393 L 609.5 387 L 615 386 Q 616 377.8 622.5 374 L 627.5 373 L 636.5 376 Q 639.3 372.3 646.5 373 L 663.5 361 L 668.5 361 L 672.5 362 L 682.5 355 L 694 354 L 694 351.5 L 699.5 345 L 701.5 344 L 715.5 344 L 724 338.5 L 729.5 331 Q 733.2 327.7 741.5 329 L 754.5 322 Q 760.5 323.5 762 320.5 L 765.5 313 L 769.5 311 L 786.5 310 L 794.5 305 L 802.5 305 L 810.5 298 L 824.5 294 L 834.5 293 L 858.5 281 L 867.5 280 L 873.5 275 L 879.5 274 L 888.5 279 L 905.5 270 L 910.5 270 L 912.5 271 L 918.5 267 L 922.5 267 Q 923.8 269.3 928.5 268 L 933.5 267 L 936.5 268 Q 939.1 261.1 948.5 261 L 958.5 265 L 966.5 260 Z M 863 314 L 859 317 L 860 318 L 863 316 L 863 314 Z M 1388 355 L 1388 356 L 1391 356 L 1388 355 Z M 1010 509 Q 1008 512 1003 510 L 997 514 L 985 511 Q 973 512 966 518 L 952 519 L 943 526 L 927 531 L 914 540 L 912 543 L 905 546 Q 899 549 897 556 L 891 558 L 887 562 L 886 571 L 884 574 L 880 578 L 876 578 L 871 580 L 866 587 Q 864 593 867 595 L 867 597 L 859 607 L 858 617 L 856 623 L 849 634 L 849 641 Q 845 648 844 659 L 837 669 Q 835 677 839 681 Q 840 689 836 692 L 836 697 L 840 703 L 839 706 L 839 715 Q 846 719 847 730 L 851 733 L 860 736 Q 870 735 876 731 L 880 726 L 883 727 L 892 726 L 896 724 L 902 717 L 901 713 L 907 709 L 912 703 Q 913 696 910 693 L 916 684 L 915 681 L 927 653 L 934 645 L 938 641 L 944 638 L 945 635 L 950 631 L 959 619 L 962 616 L 971 613 Q 975 610 976 603 L 997 601 L 1001 599 L 1006 599 L 1011 603 L 1028 599 L 1038 612 L 1039 616 L 1043 617 L 1044 619 Q 1043 624 1045 626 Q 1046 635 1043 641 L 1049 655 L 1048 658 Q 1047 668 1052 672 L 1050 678 L 1051 685 L 1051 687 Q 1049 693 1052 695 L 1051 699 L 1054 705 L 1051 713 L 1051 717 L 1055 731 L 1051 739 L 1053 744 L 1052 749 Q 1053 752 1051 751 L 1048 755 Q 1047 766 1053 770 L 1052 781 L 1050 785 L 1039 791 L 1036 797 Q 1033 801 1028 802 L 1024 807 L 1015 814 Q 1012 813 1013 816 L 1000 825 Q 997 824 998 827 L 991 829 Q 987 831 987 836 Q 984 841 978 843 Q 974 842 975 845 L 971 849 L 958 854 L 950 863 L 945 866 L 939 867 L 931 872 L 923 883 L 920 886 L 910 888 L 906 893 L 902 895 L 897 902 L 892 906 L 886 913 Q 873 918 865 928 L 860 929 L 844 938 L 842 941 L 838 941 L 832 944 Q 827 945 828 953 L 825 954 L 820 960 L 816 963 Q 812 965 812 970 L 805 976 L 799 977 L 793 980 L 790 983 L 787 991 Q 775 998 766 1008 L 761 1009 L 759 1016 L 758 1017 L 748 1019 Q 744 1020 745 1027 L 744 1028 L 737 1029 L 732 1034 L 732 1037 L 728 1043 L 725 1045 L 722 1049 L 719 1052 L 710 1053 L 707 1055 L 696 1068 L 694 1067 L 690 1067 L 686 1069 L 682 1078 L 676 1082 L 671 1092 L 665 1098 L 662 1104 L 662 1107 L 654 1110 Q 647 1115 649 1126 L 645 1127 L 639 1140 L 634 1143 Q 627 1147 626 1155 L 619 1160 L 614 1166 L 614 1169 Q 612 1172 608 1172 L 600 1189 L 593 1194 L 586 1201 L 585 1209 L 580 1218 L 577 1220 L 568 1230 L 567 1234 L 565 1235 L 560 1241 L 560 1249 Q 557 1258 550 1264 L 548 1270 L 548 1278 L 549 1279 L 549 1282 L 544 1292 L 543 1300 L 537 1312 Q 536 1319 540 1322 L 545 1325 L 548 1333 L 551 1334 L 556 1349 Q 555 1351 558 1350 L 559 1353 L 569 1358 L 575 1372 L 585 1378 L 588 1377 L 606 1384 Q 617 1383 625 1386 L 630 1384 Q 634 1383 636 1385 L 657 1383 L 659 1383 L 661 1382 L 664 1383 L 676 1380 L 685 1380 Q 689 1377 697 1378 L 702 1376 Q 707 1375 709 1377 Q 721 1379 727 1374 L 732 1375 L 734 1374 L 736 1375 L 747 1373 L 759 1374 L 762 1376 L 776 1375 L 779 1373 L 782 1373 L 786 1377 L 795 1379 L 805 1374 L 813 1374 L 814 1373 L 819 1373 L 828 1376 L 834 1376 L 840 1373 L 841 1374 L 859 1374 L 866 1378 L 882 1378 L 894 1375 L 898 1377 L 902 1375 L 916 1375 L 917 1374 L 927 1377 Q 937 1379 942 1374 L 947 1377 L 956 1377 L 963 1373 L 971 1377 L 978 1377 L 986 1374 L 989 1375 Q 1000 1377 1004 1371 L 1012 1371 L 1019 1375 Q 1023 1374 1025 1376 L 1033 1374 L 1037 1371 L 1044 1371 L 1052 1367 L 1056 1368 L 1068 1368 L 1082 1362 L 1084 1363 Q 1096 1365 1103 1360 L 1123 1366 Q 1129 1367 1132 1363 L 1138 1365 L 1157 1365 L 1170 1362 L 1184 1367 Q 1195 1369 1200 1364 L 1214 1365 L 1217 1367 L 1221 1366 L 1223 1367 L 1229 1367 L 1241 1362 L 1243 1363 L 1254 1363 L 1257 1361 L 1261 1362 L 1268 1362 L 1276 1358 Q 1280 1359 1282 1357 L 1302 1357 L 1311 1355 Q 1321 1353 1326 1358 L 1334 1357 L 1337 1355 L 1343 1355 L 1350 1352 L 1359 1352 L 1363 1350 L 1371 1350 L 1374 1352 Q 1378 1351 1380 1353 Q 1384 1351 1393 1352 L 1400 1348 Q 1404 1347 1406 1349 L 1417 1347 Q 1423 1347 1426 1350 L 1433 1349 L 1436 1347 L 1439 1345 L 1441 1345 L 1445 1344 Q 1450 1343 1451 1346 Q 1465 1348 1473 1342 L 1478 1344 L 1487 1342 Q 1492 1341 1494 1343 L 1499 1342 L 1507 1333 Q 1513 1332 1516 1335 Q 1522 1337 1524 1334 Q 1528 1333 1530 1335 L 1537 1334 L 1547 1327 Q 1555 1326 1560 1329 Q 1572 1329 1578 1322 L 1580 1323 L 1591 1322 L 1592 1321 L 1599 1324 L 1613 1324 L 1617 1322 L 1620 1316 L 1624 1313 Q 1628 1312 1630 1315 Q 1636 1316 1638 1313 Q 1640 1314 1639 1312 L 1654 1305 L 1662 1304 L 1667 1301 L 1681 1277 L 1677 1257 L 1678 1246 L 1675 1243 L 1671 1240 L 1667 1232 L 1667 1229 L 1657 1215 L 1657 1208 L 1655 1204 L 1649 1201 Q 1643 1202 1641 1200 L 1640 1195 L 1626 1182 L 1623 1181 L 1619 1176 L 1612 1171 L 1613 1168 L 1612 1164 Q 1608 1158 1599 1159 L 1593 1154 L 1590 1148 Q 1586 1142 1578 1141 L 1577 1137 Q 1574 1132 1567 1132 L 1564 1129 Q 1560 1124 1553 1123 L 1549 1116 L 1547 1113 L 1534 1108 L 1533 1103 Q 1529 1096 1521 1096 L 1518 1083 L 1513 1078 Q 1510 1079 1511 1077 Q 1510 1073 1505 1074 L 1500 1069 Q 1499 1064 1493 1065 L 1488 1060 L 1485 1060 Q 1478 1056 1476 1047 L 1463 1035 L 1458 1034 L 1446 1027 Q 1438 1028 1435 1026 L 1431 1016 L 1425 1013 L 1421 1007 L 1417 1003 Q 1413 1001 1413 997 Q 1410 992 1402 992 L 1398 987 Q 1396 982 1390 983 L 1384 975 Q 1381 973 1374 974 L 1372 972 Q 1369 973 1370 971 L 1365 966 L 1360 965 Q 1357 961 1351 960 L 1349 958 L 1342 952 L 1340 953 L 1337 952 L 1336 948 Q 1332 940 1322 939 L 1319 934 L 1308 927 Q 1305 928 1306 926 L 1290 913 Q 1286 914 1287 912 L 1282 907 L 1268 902 L 1266 900 L 1250 887 L 1243 885 L 1241 883 L 1235 877 Q 1231 878 1232 876 Q 1229 869 1221 868 L 1219 866 L 1216 864 L 1215 854 L 1211 849 Q 1206 850 1205 848 L 1203 849 L 1202 842 L 1195 834 L 1185 831 L 1176 820 L 1161 810 L 1157 804 L 1153 799 L 1148 799 Q 1144 795 1139 795 Q 1141 785 1135 782 Q 1134 773 1137 769 L 1136 768 L 1135 750 L 1134 747 L 1131 746 L 1136 732 L 1136 727 L 1131 716 L 1131 709 L 1134 698 L 1133 680 L 1131 677 L 1132 669 L 1135 661 L 1133 655 L 1134 652 Q 1134 639 1127 634 L 1130 628 L 1129 624 L 1130 621 L 1130 617 L 1126 606 L 1128 602 L 1127 592 L 1122 586 L 1122 581 L 1117 574 L 1115 565 L 1110 561 L 1100 547 Q 1101 540 1098 537 Q 1095 532 1087 533 L 1081 528 L 1065 525 L 1049 515 L 1043 513 L 1038 514 Q 1032 515 1031 512 L 1022 512 L 1021 513 L 1018 513 L 1010 509 Z "></path><path fill="rgb(0,64,134)" stroke="rgb(0,64,134)" stroke-width="1" opacity="1" d="M 1078.5 856 L 1084.5 857 L 1087 859.5 L 1089 864 L 1096 868.5 L 1098.5 872 L 1103 873 L 1106.5 879 L 1117.5 887 L 1138 896.5 L 1143 907 L 1154.5 912 L 1164 919.5 L 1170.5 927 Q 1173.9 932.1 1183.5 931 L 1202 946.5 L 1210 957 L 1214 959.5 Q 1213.2 962.1 1216.5 961 L 1226.5 966 L 1235.5 973 L 1241.5 976 L 1247.5 977 L 1255 983.5 Q 1254.3 985.8 1256.5 985 L 1268 991.5 Q 1268.9 998.1 1273.5 1001 L 1285.5 1006 L 1290 1010.5 L 1295.5 1017 L 1302 1020.5 L 1305.5 1025 L 1310 1027 Q 1308.9 1029.7 1311.5 1029 L 1328.5 1044 L 1336.5 1047 L 1349.5 1057 L 1353.5 1058 L 1365 1068.5 Q 1366.3 1075.3 1370.5 1079 Q 1372.8 1081.7 1378.5 1081 L 1383.5 1080 L 1394.5 1086 L 1403 1094.5 L 1404 1099.5 L 1408.5 1106 Q 1410.4 1109.6 1416.5 1109 L 1420.5 1108 L 1429 1114.5 L 1435.5 1122 L 1446.5 1127 L 1457 1136.5 L 1461.5 1143 L 1465.5 1145 L 1467.5 1145 Q 1469.8 1144.3 1469 1146.5 L 1472.5 1153 L 1479.5 1157 Q 1484.8 1155.8 1486 1158.5 L 1489 1166.5 L 1493.5 1171 L 1501.5 1172 L 1506 1176.5 Q 1505.3 1178.8 1507.5 1178 L 1511.5 1181 L 1520.5 1183 L 1526 1187.5 L 1528.5 1191 L 1532 1193.5 L 1537.5 1200 L 1543 1203 Q 1542.3 1215.9 1550.5 1221 L 1554 1223.5 L 1554 1228.5 L 1547 1238.5 Q 1547 1245 1543.5 1248 L 1536.5 1250 L 1533.5 1249 Q 1529.8 1252.3 1521.5 1251 Q 1519.8 1248.2 1514.5 1249 L 1510.5 1252 L 1495.5 1253 L 1490.5 1255 Q 1488.2 1251.2 1481.5 1252 L 1476.5 1255 L 1473.5 1255 Q 1471.8 1252.2 1465.5 1254 L 1458.5 1258 Q 1457.3 1255.8 1452.5 1257 L 1449.5 1259 Q 1445.9 1256.1 1438.5 1257 L 1433.5 1261 L 1430.5 1261 Q 1429 1258.5 1423.5 1260 Q 1421.2 1262.7 1415.5 1262 Q 1414 1259.5 1408.5 1261 L 1401.5 1263 L 1396.5 1261 L 1390.5 1261 L 1377.5 1258 L 1372.5 1259 L 1364.5 1265 L 1362.5 1265 Q 1359.2 1261.8 1351.5 1263 L 1347.5 1264 L 1339.5 1261 L 1330.5 1264 L 1326.5 1267 L 1321.5 1267 L 1315.5 1270 L 1313.5 1269 Q 1312.3 1271.3 1307.5 1270 L 1296.5 1268 L 1290 1272.5 Q 1290.8 1274.8 1288.5 1274 Q 1286.9 1270.1 1280.5 1271 L 1279.5 1272 L 1267.5 1272 L 1264.5 1274 L 1253.5 1276 L 1242.5 1276 L 1232.5 1280 Q 1229.8 1274.2 1219.5 1276 L 1208.5 1283 L 1203.5 1283 L 1198.5 1282 L 1192.5 1285 L 1185.5 1280 L 1179.5 1280 L 1171.5 1284 L 1170.5 1283 L 1161.5 1283 L 1155.5 1288 L 1153.5 1288 Q 1150.5 1285 1144.5 1285 L 1136.5 1291 Q 1129.7 1286.3 1119.5 1285 Q 1117.3 1289.3 1109.5 1288 L 1100.5 1284 L 1095.5 1285 L 1088.5 1290 L 1070.5 1291 Q 1067.7 1287.3 1060.5 1288 Q 1059 1290.5 1053.5 1289 L 1048.5 1288 L 1040.5 1293 L 1030.5 1293 L 1020.5 1289 L 1011.5 1289 L 992.5 1295 L 988.5 1293 L 981.5 1292 L 979.5 1290 Q 968.6 1291.4 961.5 1289 L 947.5 1295 L 935.5 1287 L 928.5 1287 L 923.5 1289 Q 920.6 1286.4 914.5 1287 Q 912.7 1289.8 906.5 1288 Q 902.8 1284.7 894.5 1286 L 883.5 1290 Q 882 1287.5 876.5 1289 L 872.5 1286 L 866.5 1286 L 859.5 1290 L 854.5 1288 L 853.5 1289 L 845.5 1289 Q 844.2 1286.8 839.5 1288 L 836.5 1289 L 828.5 1285 L 821.5 1287 L 818.5 1286 L 812.5 1288 L 809.5 1291 Q 808 1288.5 802.5 1290 L 798.5 1291 L 790.5 1289 L 785.5 1293 L 767.5 1294 L 763.5 1296 L 759.5 1295 L 756.5 1297 Q 753.9 1293.1 746.5 1294 L 738.5 1297 Q 735.5 1294 729.5 1294 L 720.5 1296 L 714.5 1301 L 712.5 1301 Q 707.3 1296.2 695.5 1298 L 691.5 1302 L 690.5 1301 L 686.5 1301 L 680.5 1297 L 676.5 1297 L 674 1298 L 670.5 1303 L 657.5 1299 Q 656.7 1301.8 652.5 1301 L 644.5 1298 Q 635.6 1299.2 632 1297 L 633 1285.5 Q 630.8 1284.3 633.5 1283 L 638 1279.5 L 639 1271.5 L 638 1268.5 L 653.5 1247 Q 661.6 1247.1 664 1241.5 L 666 1233.5 L 668.5 1231 L 671 1229.5 Q 675.1 1218.1 682.5 1210 Q 689 1211 691 1207.5 Q 698.2 1201.7 701.5 1192 Q 706.5 1192.5 707 1188.5 L 710.5 1179 Q 718.6 1179.6 721 1174.5 Q 720.3 1169.8 723.5 1169 L 737 1158.5 Q 740 1156.5 739 1150.5 L 756 1131.5 L 759.5 1125 Q 765.3 1125.8 767 1122.5 L 771.5 1115 L 777.5 1113 L 787 1105.5 L 788 1100 L 794.5 1100 L 801 1095.5 L 803 1090.5 L 806.5 1087 L 810 1084.5 L 811.5 1082 Q 818.6 1081.2 821 1075.5 L 823 1069 L 830 1063.5 L 835 1057.5 L 836 1053 L 842.5 1051 L 846 1047.5 L 847.5 1045 L 853 1041.5 L 854 1037.5 L 862.5 1028 L 878 1017.5 L 881.5 1010 L 883.5 1010 L 890 1003.5 Q 889.3 1001.3 891.5 1002 L 901 994.5 L 902 991 L 908 987.5 L 914.5 978 L 919.5 978 L 926 972.5 Q 925.1 969.5 929.5 971 L 934.5 969 L 938 965.5 L 940.5 959 L 947.5 958 L 954 951.5 L 956 944 Q 964.4 945.4 967 939.5 L 967 937 L 972.5 937 L 981 929.5 L 983.5 926 L 986.5 926 L 993 919.5 Q 992.2 916.9 995.5 918 L 999.5 917 L 1007.5 909 L 1012.5 908 L 1027 896.5 L 1029.5 891 L 1036 886.5 L 1039.5 880 L 1045.5 880 L 1053 874.5 Q 1052.3 872.3 1054.5 873 L 1064 867.5 L 1067.5 861 L 1070.5 861 L 1078.5 856 Z "></path><path fill="rgb(0,64,134)" stroke="rgb(0,64,134)" stroke-width="1" opacity="1" d="M 1142.5 857 L 1147 858.5 L 1145.5 859 L 1142.5 858 L 1142.5 857 Z "></path></svg>